<?xml version="1.0" encoding="UTF-8"?>
<!DOCTYPE svg PUBLIC "-//W3C//DTD SVG 1.1//EN" "http://www.w3.org/Graphics/SVG/1.1/DTD/svg11.dtd">
<svg xmlns="http://www.w3.org/2000/svg" version="1.1" width="4675px" height="4676px" style="shape-rendering:geometricPrecision; text-rendering:geometricPrecision; image-rendering:optimizeQuality; fill-rule:evenodd; clip-rule:evenodd" xmlns:xlink="http://www.w3.org/1999/xlink">
<g><path style="opacity:0.106" fill="#feefe8" d="M -0.5,-0.5 C 1557.83,-0.5 3116.17,-0.5 4674.5,-0.5C 4674.5,1558.17 4674.5,3116.83 4674.5,4675.5C 3116.17,4675.5 1557.83,4675.5 -0.5,4675.5C -0.5,3116.83 -0.5,1558.17 -0.5,-0.5 Z"/></g>
<g><path style="opacity:1" fill="#b89d70" d="M 2288.5,1361.5 C 2557.92,1352.34 2792.92,1436.51 2993.5,1614C 3185.98,1792.48 3292.14,2013.31 3312,2276.5C 3324.37,2510.08 3263.04,2721.75 3128,2911.5C 2984.51,3104.82 2795.34,3230.66 2560.5,3289C 2361.08,3334.15 2166.08,3319.82 1975.5,3246C 1776.61,3164 1619.77,3032.17 1505,2850.5C 1392.97,2664.99 1345.97,2463.99 1364,2247.5C 1390.53,1995.94 1496.03,1784.78 1680.5,1614C 1853.31,1459.63 2055.98,1375.46 2288.5,1361.5 Z"/></g>
<g><path style="opacity:1" fill="#feefe8" d="M 2303.5,1419.5 C 2551.4,1414.28 2767.73,1493.11 2952.5,1656C 3149.97,1839.67 3250.97,2067 3255.5,2338C 3250.25,2615.1 3145.25,2845.77 2940.5,3030C 2777.62,3169.78 2588.29,3244.78 2372.5,3255C 2119.65,3261.63 1899.98,3180.63 1713.5,3012C 1526.93,2835.29 1428.76,2617.79 1419,2359.5C 1416.32,2109.44 1498.99,1892.77 1667,1709.5C 1840.38,1529.08 2052.55,1432.41 2303.5,1419.5 Z"/></g>
<g><path style="opacity:1" fill="#b89d71" d="M 2410.5,1538.5 C 2433.97,1543.8 2457.64,1548.13 2481.5,1551.5C 2481.5,1552.83 2481.5,1554.17 2481.5,1555.5C 2477.15,1555.33 2472.82,1555.5 2468.5,1556C 2466.19,1557.11 2464.69,1558.94 2464,1561.5C 2457.81,1593.75 2451.81,1626.09 2446,1658.5C 2444.18,1684.67 2456.35,1695.51 2482.5,1691C 2489.87,1687.96 2495.7,1683.13 2500,1676.5C 2503.11,1671.16 2505.45,1665.49 2507,1659.5C 2512.54,1632.46 2517.37,1605.29 2521.5,1578C 2520.48,1567.81 2514.81,1561.98 2504.5,1560.5C 2504.21,1558.71 2504.55,1557.05 2505.5,1555.5C 2518.29,1558.95 2531.29,1561.28 2544.5,1562.5C 2544.71,1564.14 2544.38,1565.64 2543.5,1567C 2535.53,1566.97 2530.36,1570.8 2528,1578.5C 2522.7,1603.04 2518.03,1627.71 2514,1652.5C 2511.58,1665.83 2506.08,1677.67 2497.5,1688C 2484.92,1697.07 2470.92,1700.07 2455.5,1697C 2439.15,1695.12 2425.32,1688.28 2414,1676.5C 2406.53,1663.38 2404.53,1649.38 2408,1634.5C 2412.82,1607.88 2417.32,1581.21 2421.5,1554.5C 2421.46,1546.8 2417.46,1543.13 2409.5,1543.5C 2409.37,1541.71 2409.7,1540.04 2410.5,1538.5 Z"/></g>
<g><path style="opacity:1" fill="#b89d70" d="M 2193.5,1550.5 C 2195.59,1550.56 2197.09,1551.56 2198,1553.5C 2222.88,1594.09 2248.38,1634.26 2274.5,1674C 2276.81,1675.87 2279.47,1676.87 2282.5,1677C 2283.38,1678.36 2283.71,1679.86 2283.5,1681.5C 2259.65,1684.86 2235.98,1689.2 2212.5,1694.5C 2212.34,1693.13 2212.51,1691.79 2213,1690.5C 2216.22,1689.54 2219.38,1688.37 2222.5,1687C 2224.15,1685.53 2225.15,1683.7 2225.5,1681.5C 2218.94,1668.05 2211.61,1655.05 2203.5,1642.5C 2202.33,1642.17 2201.17,1641.83 2200,1641.5C 2188.55,1643.87 2177.05,1646.04 2165.5,1648C 2163.94,1648.32 2162.77,1649.15 2162,1650.5C 2158.51,1663.04 2157.84,1675.71 2160,1688.5C 2161.06,1691.56 2162.89,1694.06 2165.5,1696C 2170.4,1697.33 2175.4,1697.83 2180.5,1697.5C 2180.5,1698.83 2180.5,1700.17 2180.5,1701.5C 2166.34,1703.09 2152.34,1705.43 2138.5,1708.5C 2138.34,1707.13 2138.51,1705.79 2139,1704.5C 2141.29,1703.21 2143.29,1701.54 2145,1699.5C 2147.79,1694.47 2149.79,1689.13 2151,1683.5C 2158.75,1640.47 2166.59,1597.47 2174.5,1554.5C 2181.15,1554.12 2187.49,1552.79 2193.5,1550.5 Z"/></g>
<g><path style="opacity:1" fill="#fdeee6" d="M 2172.5,1591.5 C 2182.33,1606.34 2191.33,1621.67 2199.5,1637.5C 2187.47,1639.37 2175.47,1641.37 2163.5,1643.5C 2166.71,1626.22 2169.71,1608.88 2172.5,1591.5 Z"/></g>
<g><path style="opacity:1" fill="#b89d70" d="M 2694.5,1619.5 C 2732.24,1643.24 2770.24,1666.57 2808.5,1689.5C 2798.08,1704.43 2788.24,1719.76 2779,1735.5C 2776.95,1734.9 2775.79,1733.57 2775.5,1731.5C 2779.55,1718.79 2781.38,1705.79 2781,1692.5C 2779.56,1683.46 2775.4,1675.96 2768.5,1670C 2767.67,1669.31 2767,1669.48 2766.5,1670.5C 2744.5,1705.83 2723,1741.5 2702,1777.5C 2701.33,1779.83 2701.33,1782.17 2702,1784.5C 2705.38,1789.55 2709.71,1793.55 2715,1796.5C 2715.39,1798.08 2714.89,1799.41 2713.5,1800.5C 2689,1785.08 2664.33,1769.92 2639.5,1755C 2640.21,1753.75 2641.04,1752.58 2642,1751.5C 2647.39,1756.12 2653.55,1758.29 2660.5,1758C 2662.08,1757.29 2663.58,1756.46 2665,1755.5C 2687.29,1719.75 2709.46,1683.92 2731.5,1648C 2722.56,1642.84 2713.22,1642.17 2703.5,1646C 2691.44,1651.73 2680.77,1659.4 2671.5,1669C 2669.58,1669.22 2667.91,1668.55 2666.5,1667C 2676.98,1651.88 2686.31,1636.05 2694.5,1619.5 Z"/></g>
<g><path style="opacity:1" fill="#b89d70" d="M 1961.5,1629.5 C 1962.5,1629.41 1963.33,1629.75 1964,1630.5C 1971.61,1644.94 1979.45,1658.77 1987.5,1672C 1986.24,1672.98 1984.91,1673.32 1983.5,1673C 1976.54,1664.04 1967.88,1657.37 1957.5,1653C 1943.04,1648.6 1930.54,1651.77 1920,1662.5C 1919.33,1664.83 1919.33,1667.17 1920,1669.5C 1929.71,1685.75 1939.54,1701.92 1949.5,1718C 1954.08,1716.78 1957.58,1713.95 1960,1709.5C 1963.87,1700.31 1964.37,1690.97 1961.5,1681.5C 1962.21,1679.95 1963.38,1678.95 1965,1678.5C 1974.87,1695.06 1985.37,1711.23 1996.5,1727C 1995.33,1728.08 1994,1728.92 1992.5,1729.5C 1983.46,1719.66 1972.46,1716.16 1959.5,1719C 1957,1720.08 1954.67,1721.41 1952.5,1723C 1962.33,1738.83 1972.17,1754.67 1982,1770.5C 1984.16,1774.37 1987.33,1775.87 1991.5,1775C 2012.69,1766.13 2020.85,1750.3 2016,1727.5C 2014.47,1721.08 2012.64,1714.75 2010.5,1708.5C 2010.83,1706.83 2011.83,1705.83 2013.5,1705.5C 2022.54,1720.72 2032.21,1735.55 2042.5,1750C 2008.47,1770.04 1974.97,1790.87 1942,1812.5C 1941.04,1811.42 1940.21,1810.25 1939.5,1809C 1941.76,1807.29 1943.93,1805.45 1946,1803.5C 1947.46,1800.63 1947.79,1797.63 1947,1794.5C 1927.18,1760.87 1906.85,1727.53 1886,1694.5C 1880.91,1688.55 1875.08,1687.89 1868.5,1692.5C 1867.28,1692.11 1866.61,1691.28 1866.5,1690C 1867.34,1688.23 1868.67,1686.9 1870.5,1686C 1901.57,1668.14 1931.9,1649.31 1961.5,1629.5 Z"/></g>
<g><path style="opacity:1" fill="#b89d70" d="M 2308.5,1780.5 C 2475.99,1775.8 2618.83,1832.14 2737,1949.5C 2859.2,2080.12 2909.87,2234.78 2889,2413.5C 2866.77,2558.51 2799.6,2677.67 2687.5,2771C 2554.36,2874.98 2404.02,2913.31 2236.5,2886C 2072.95,2852.54 1947.11,2765.37 1859,2624.5C 1783.22,2493.6 1761.88,2354.27 1795,2206.5C 1835.06,2054.1 1922.22,1937.27 2056.5,1856C 2134.62,1810.97 2218.62,1785.81 2308.5,1780.5 Z"/></g>
<g><path style="opacity:1" fill="#b89d70" d="M 2923.5,1792.5 C 2925.37,1792.86 2926.87,1793.86 2928,1795.5C 2941.08,1813.92 2954.92,1831.75 2969.5,1849C 2969.07,1850.43 2968.24,1851.6 2967,1852.5C 2964.2,1848.7 2961.04,1845.2 2957.5,1842C 2955.3,1841.18 2953.47,1841.68 2952,1843.5C 2943,1862.65 2934.17,1881.82 2925.5,1901C 2940.28,1899.7 2954.61,1896.37 2968.5,1891C 2981.28,1885.66 2984.28,1876.99 2977.5,1865C 2978.01,1863.83 2978.84,1863 2980,1862.5C 2988.26,1873.93 2997.1,1884.93 3006.5,1895.5C 3005.17,1896.5 3003.83,1897.5 3002.5,1898.5C 2994.73,1895.68 2986.73,1894.85 2978.5,1896C 2961.41,1898.95 2944.41,1902.28 2927.5,1906C 2910.06,1919.47 2892.89,1933.31 2876,1947.5C 2874.54,1952.65 2875.71,1957.32 2879.5,1961.5C 2878.65,1962.84 2877.49,1963.84 2876,1964.5C 2862.26,1945.43 2847.76,1926.93 2832.5,1909C 2833.35,1907.98 2834.35,1907.14 2835.5,1906.5C 2838.02,1908.86 2840.69,1911.02 2843.5,1913C 2848.71,1913.07 2853.37,1911.41 2857.5,1908C 2867.67,1899.83 2877.83,1891.67 2888,1883.5C 2899.27,1858.62 2910.27,1833.62 2921,1808.5C 2922.58,1803.99 2922.75,1799.49 2921.5,1795C 2922.38,1794.29 2923.05,1793.46 2923.5,1792.5 Z"/></g>
<g><path style="opacity:1" fill="#feefe8" d="M 2319.5,1809.5 C 2483.68,1808.24 2621.18,1867.58 2732,1987.5C 2845.04,2120.29 2885.71,2272.96 2854,2445.5C 2820.31,2593.17 2739.81,2707.33 2612.5,2788C 2482.46,2864.53 2344.13,2884.2 2197.5,2847C 2042.12,2800.95 1928.95,2705.12 1858,2559.5C 1807.57,2447.72 1796.24,2332.05 1824,2212.5C 1867.92,2048.93 1966.08,1930.43 2118.5,1857C 2182.53,1828.08 2249.53,1812.24 2319.5,1809.5 Z"/></g>
<g><path style="opacity:1" fill="#b89d70" d="M 1741.5,1819.5 C 1756.82,1818.07 1767.32,1824.4 1773,1838.5C 1774.47,1844.43 1774.8,1850.43 1774,1856.5C 1772.23,1864.79 1769.9,1872.79 1767,1880.5C 1775.98,1870.1 1786.81,1862.26 1799.5,1857C 1819.61,1852.14 1833.44,1859.3 1841,1878.5C 1843.12,1892.47 1840.46,1905.47 1833,1917.5C 1828.91,1924.01 1824.58,1930.34 1820,1936.5C 1805.21,1954.27 1790.88,1972.27 1777,1990.5C 1775.72,1990.39 1774.89,1989.72 1774.5,1988.5C 1778.37,1983.95 1779.2,1978.95 1777,1973.5C 1745.13,1947.82 1712.63,1922.98 1679.5,1899C 1677.5,1898.33 1675.5,1898.33 1673.5,1899C 1670.7,1900.79 1668.2,1902.96 1666,1905.5C 1664.75,1904.79 1663.58,1903.96 1662.5,1903C 1679.94,1881.95 1696.77,1860.45 1713,1838.5C 1721.09,1829.89 1730.59,1823.56 1741.5,1819.5 Z"/></g>
<g><path style="opacity:1" fill="#fdeee7" d="M 1711.5,1848.5 C 1717.52,1847.96 1723.19,1849.13 1728.5,1852C 1740.29,1858.79 1749.79,1867.95 1757,1879.5C 1758.89,1887.1 1757.06,1893.6 1751.5,1899C 1748.2,1898.18 1745.2,1896.51 1742.5,1894C 1729.71,1884.21 1717.21,1874.05 1705,1863.5C 1703.7,1856.97 1705.87,1851.97 1711.5,1848.5 Z"/></g>
<g><path style="opacity:1" fill="#feefe7" d="M 1773.5,1885.5 C 1794.3,1886.82 1809.46,1896.82 1819,1915.5C 1821.11,1925.12 1818.27,1932.96 1810.5,1939C 1805.63,1940.19 1801.3,1939.19 1797.5,1936C 1783.33,1925.17 1769.17,1914.33 1755,1903.5C 1756.05,1898.95 1758.55,1895.12 1762.5,1892C 1766.1,1889.54 1769.76,1887.37 1773.5,1885.5 Z"/></g>
<g><path style="opacity:1" fill="#b89d70" d="M 2506.5,2077.5 C 2510.55,2077.08 2514.38,2077.74 2518,2079.5C 2519.76,2079.06 2519.6,2078.56 2517.5,2078C 2520.82,2077.5 2524.15,2077.33 2527.5,2077.5C 2587.05,2084.22 2626.55,2115.88 2646,2172.5C 2658.76,2226.2 2645.26,2272.04 2605.5,2310C 2566.4,2341.69 2522.74,2350.02 2474.5,2335C 2449.11,2325.44 2428.11,2309.94 2411.5,2288.5C 2397.41,2318.35 2383.58,2348.35 2370,2378.5C 2370.36,2381.92 2371.36,2385.26 2373,2388.5C 2413.92,2477.35 2454.59,2566.35 2495,2655.5C 2497.31,2677.02 2487.81,2689.35 2466.5,2692.5C 2456.12,2692.23 2447.95,2687.89 2442,2679.5C 2406.95,2603.41 2371.95,2527.41 2337,2451.5C 2301.61,2528.62 2265.94,2605.62 2230,2682.5C 2213.38,2696.64 2197.72,2695.64 2183,2679.5C 2178.36,2670.91 2177.36,2661.91 2180,2652.5C 2221.88,2561.91 2263.38,2471.07 2304.5,2380C 2290.89,2349.29 2276.89,2318.79 2262.5,2288.5C 2228.2,2331.11 2183.86,2348.27 2129.5,2340C 2069.72,2324.55 2034.55,2286.39 2024,2225.5C 2019.43,2176.51 2035.93,2136.34 2073.5,2105C 2091.95,2091.11 2112.62,2082.11 2135.5,2078C 2121.33,2061.83 2107.17,2045.67 2093,2029.5C 2082.45,2008.85 2087.61,1993.68 2108.5,1984C 2119.72,1981.39 2129.55,1983.89 2138,1991.5C 2170.24,2028.31 2202.24,2065.31 2234,2102.5C 2267.49,2128.13 2285.82,2162.13 2289,2204.5C 2304.62,2239.37 2320.62,2274.04 2337,2308.5C 2352.98,2273.9 2368.98,2239.24 2385,2204.5C 2392.11,2138.06 2427.94,2096.23 2492.5,2079C 2497.14,2078.17 2501.8,2077.67 2506.5,2077.5 Z"/></g>
<g><path style="opacity:1" fill="#cdb594" d="M 2506.5,2077.5 C 2513.5,2076.17 2520.5,2076.17 2527.5,2077.5C 2524.15,2077.33 2520.82,2077.5 2517.5,2078C 2519.6,2078.56 2519.76,2079.06 2518,2079.5C 2514.38,2077.74 2510.55,2077.08 2506.5,2077.5 Z"/></g>
<g><path style="opacity:1" fill="#feefe8" d="M 2145.5,2135.5 C 2187.42,2133.86 2214.92,2152.86 2228,2192.5C 2234.03,2230.6 2220.2,2258.76 2186.5,2277C 2152.31,2290.24 2122.81,2283.41 2098,2256.5C 2075.74,2224.54 2076.07,2192.87 2099,2161.5C 2111.76,2147.71 2127.26,2139.04 2145.5,2135.5 Z"/></g>
<g><path style="opacity:1" fill="#feefe8" d="M 2506.5,2135.5 C 2537.86,2132.93 2562.69,2144.27 2581,2169.5C 2598,2200.17 2596,2229.5 2575,2257.5C 2550.99,2282.83 2522.49,2289.67 2489.5,2278C 2453.11,2258.89 2438.95,2229.06 2447,2188.5C 2457.33,2160 2477.16,2142.33 2506.5,2135.5 Z"/></g>
<g><path style="opacity:1" fill="#b89d70" d="M 1596.5,2262.5 C 1642.28,2260.95 1670.78,2282.29 1682,2326.5C 1684.56,2369.58 1665.39,2397.75 1624.5,2411C 1582.73,2417.45 1553.39,2401.45 1536.5,2363C 1525.76,2325.2 1536.43,2295.2 1568.5,2273C 1577.47,2268.18 1586.8,2264.68 1596.5,2262.5 Z"/></g>
<g><path style="opacity:1" fill="#b89d70" d="M 3059.5,2262.5 C 3102.73,2262.25 3129.9,2282.92 3141,2324.5C 3145.13,2360.41 3131.63,2387.24 3100.5,2405C 3060.07,2421.18 3027.23,2411.68 3002,2376.5C 2981.88,2333.82 2991.04,2298.99 3029.5,2272C 3039.03,2266.88 3049.03,2263.71 3059.5,2262.5 Z"/></g>
<g><path style="opacity:1" fill="#b89d70" d="M 1858.5,2808.5 C 1871.78,2808.43 1883.78,2812.26 1894.5,2820C 1901.23,2825.27 1907.39,2831.11 1913,2837.5C 1917.57,2845.46 1921.73,2853.63 1925.5,2862C 1928.83,2861.75 1931.66,2860.25 1934,2857.5C 1935.35,2858.69 1936.52,2860.02 1937.5,2861.5C 1925.54,2873.45 1914.04,2885.79 1903,2898.5C 1901.83,2897.33 1900.67,2896.17 1899.5,2895C 1911.31,2880.25 1915.15,2863.75 1911,2845.5C 1904.33,2831.74 1893.83,2827.24 1879.5,2832C 1869.85,2840.38 1866.68,2850.88 1870,2863.5C 1873.81,2878.39 1877.14,2893.39 1880,2908.5C 1883.77,2927.76 1877.94,2943.26 1862.5,2955C 1850.19,2961.6 1837.53,2962.26 1824.5,2957C 1800.6,2946.1 1783.93,2928.43 1774.5,2904C 1773.17,2903.33 1771.83,2903.33 1770.5,2904C 1768.63,2905.37 1766.63,2906.53 1764.5,2907.5C 1763.17,2906.83 1762.17,2905.83 1761.5,2904.5C 1775.19,2889.81 1788.86,2875.14 1802.5,2860.5C 1803.83,2861.17 1804.83,2862.17 1805.5,2863.5C 1798.12,2872.92 1792.29,2883.26 1788,2894.5C 1782.89,2914.45 1789.73,2928.62 1808.5,2937C 1821.59,2939.2 1830.42,2934.04 1835,2921.5C 1836.54,2913.23 1836.87,2904.9 1836,2896.5C 1832.52,2882.92 1829.52,2869.26 1827,2855.5C 1824.72,2835.21 1832.56,2820.38 1850.5,2811C 1853.31,2810.22 1855.98,2809.38 1858.5,2808.5 Z"/></g>
<g><path style="opacity:1" fill="#b89d70" d="M 2825.5,2782.5 C 2827.02,2783.19 2828.02,2784.36 2828.5,2786C 2825.7,2789.73 2824.53,2793.9 2825,2798.5C 2826.75,2802.33 2828.75,2805.99 2831,2809.5C 2858.64,2840.13 2885.8,2871.13 2912.5,2902.5C 2909.04,2905.46 2905.71,2908.62 2902.5,2912C 2901.67,2912.17 2900.83,2912.33 2900,2912.5C 2855.9,2907.04 2811.73,2902.54 2767.5,2899C 2785.12,2920.29 2803.78,2940.62 2823.5,2960C 2828.77,2963.13 2834.1,2963.13 2839.5,2960C 2841.37,2958.63 2843.37,2957.47 2845.5,2956.5C 2847.98,2957.42 2848.65,2958.92 2847.5,2961C 2837.08,2968.75 2827.24,2977.25 2818,2986.5C 2816.98,2985.65 2816.14,2984.65 2815.5,2983.5C 2820.57,2976.59 2820.74,2969.59 2816,2962.5C 2791.09,2933.2 2765.59,2904.36 2739.5,2876C 2737.61,2874.89 2735.61,2874.05 2733.5,2873.5C 2729.86,2874.66 2726.52,2876.32 2723.5,2878.5C 2722.09,2878.13 2721.09,2877.3 2720.5,2876C 2729.98,2868.02 2739.31,2859.85 2748.5,2851.5C 2789.12,2855.69 2829.78,2859.19 2870.5,2862C 2854.85,2843.68 2838.51,2826.01 2821.5,2809C 2813.23,2805.47 2805.56,2806.64 2798.5,2812.5C 2797.11,2811.41 2796.61,2810.08 2797,2808.5C 2807,2800.34 2816.5,2791.67 2825.5,2782.5 Z"/></g>
<g><path style="opacity:1" fill="#b89d70" d="M 2082.5,2943.5 C 2088.74,2947.14 2095.41,2949.8 2102.5,2951.5C 2102.12,3000.17 2101.95,3048.83 2102,3097.5C 2102.51,3099.88 2103.18,3102.21 2104,3104.5C 2107.79,3106.68 2108.29,3109.35 2105.5,3112.5C 2083.3,3102.77 2060.96,3093.43 2038.5,3084.5C 2038.87,3083.1 2039.7,3082.1 2041,3081.5C 2045.02,3083.27 2049.19,3083.77 2053.5,3083C 2055.05,3081.79 2056.22,3080.29 2057,3078.5C 2058.36,3063.52 2058.7,3048.52 2058,3033.5C 2045.44,3027.65 2032.6,3022.82 2019.5,3019C 2009.33,3027.83 2001.49,3038.33 1996,3050.5C 1995.18,3053.96 1995.52,3057.3 1997,3060.5C 1999.96,3064.15 2003.62,3066.81 2008,3068.5C 2008.68,3069.78 2008.52,3070.95 2007.5,3072C 1994.35,3066.94 1981.02,3062.11 1967.5,3057.5C 1967.29,3055.86 1967.62,3054.36 1968.5,3053C 1975.9,3052.8 1982.24,3050.13 1987.5,3045C 2019.37,3011.3 2051.04,2977.46 2082.5,2943.5 Z"/></g>
<g><path style="opacity:1" fill="#b89d70" d="M 2577.5,2948.5 C 2616.49,2946.99 2642.32,2964.66 2655,3001.5C 2667.01,3053.98 2647.18,3087.81 2595.5,3103C 2546.49,3111.57 2515.66,3091.74 2503,3043.5C 2496.46,3003.07 2511.63,2974.24 2548.5,2957C 2557.97,2953.05 2567.64,2950.22 2577.5,2948.5 Z"/></g>
<g><path style="opacity:1" fill="#feefe8" d="M 2557.5,2957.5 C 2564.24,2957.27 2570.58,2958.77 2576.5,2962C 2587.42,2969.36 2595.92,2978.86 2602,2990.5C 2616.53,3015.97 2622.87,3043.3 2621,3072.5C 2618.77,3090.07 2608.94,3097.91 2591.5,3096C 2577.8,3089.63 2567.3,3079.8 2560,3066.5C 2545.32,3040.77 2538.32,3013.1 2539,2983.5C 2540.07,2970.98 2546.23,2962.32 2557.5,2957.5 Z"/></g>
<g><path style="opacity:1" fill="#fdeee7" d="M 2059.5,2975.5 C 2060.35,2993.02 2060.02,3010.68 2058.5,3028.5C 2046.68,3023.95 2035.01,3019.12 2023.5,3014C 2035.71,3001.3 2047.71,2988.46 2059.5,2975.5 Z"/></g>
<g><path style="opacity:1" fill="#b89d70" d="M 2370.5,3133.5 C 2370.5,3136.83 2370.5,3140.17 2370.5,3143.5C 2368.5,3143.5 2366.5,3143.5 2364.5,3143.5C 2326.52,3141.91 2288.52,3140.91 2250.5,3140.5C 2250.5,3138.83 2250.5,3137.17 2250.5,3135.5C 2253.52,3135.66 2256.52,3135.5 2259.5,3135C 2261.67,3134.17 2263.17,3132.67 2264,3130.5C 2265.92,3118.27 2266.92,3105.94 2267,3093.5C 2268.29,3063.84 2268.96,3034.17 2269,3004.5C 2266.51,2998.55 2262.01,2996.22 2255.5,2997.5C 2255.5,2995.83 2255.5,2994.17 2255.5,2992.5C 2280.14,2994.05 2304.8,2995.05 2329.5,2995.5C 2329.5,2996.83 2329.5,2998.17 2329.5,2999.5C 2319.88,2997.54 2314.05,3001.21 2312,3010.5C 2310.57,3051.17 2309.57,3091.83 2309,3132.5C 2309.83,3134.67 2311.33,3136.17 2313.5,3137C 2322.35,3138.6 2330.69,3137.26 2338.5,3133C 2353.04,3121.44 2362.71,3106.6 2367.5,3088.5C 2368.69,3087.57 2370.02,3087.24 2371.5,3087.5C 2371.44,3102.84 2371.11,3118.17 2370.5,3133.5 Z"/></g>
<g><path style="opacity:1" fill="#d9c5ab" d="M 2370.5,3133.5 C 2371.48,3136.96 2371.81,3140.63 2371.5,3144.5C 2368.94,3144.8 2366.61,3144.47 2364.5,3143.5C 2366.5,3143.5 2368.5,3143.5 2370.5,3143.5C 2370.5,3140.17 2370.5,3136.83 2370.5,3133.5 Z"/></g>
</svg>
